<svg width="100" height="100" viewBox="0 0 100 100" fill="none" xmlns="http://www.w3.org/2000/svg">
<path d="M33.3334 79.1667H75V91.6667H33.3334V79.1667ZM83.3334 50V29.1667C83.3334 29.1667 83.3334 8.33334 66.6667 8.33334H41.6667C34.2917 8.33334 30.1667 12.5 27.875 16.9583C31.7323 17.6305 35.2294 19.6405 37.7517 22.6353C40.274 25.6301 41.6602 29.4179 41.6667 33.3333V45.8333H33.3334V33.3333C33.3334 31.1232 32.4554 29.0036 30.8926 27.4408C29.3298 25.878 27.2102 25 25 25C22.7899 25 20.6703 25.878 19.1075 27.4408C17.5447 29.0036 16.6667 31.1232 16.6667 33.3333V54.1667C16.6667 70.8333 33.3334 70.8333 33.3334 70.8333H75C75 70.8333 83.3334 66.6667 83.3334 50Z" fill="#A062EB" fill-opacity="0.4"/>
</svg>
