<svg width="88" height="88" viewBox="0 0 88 88" fill="none" xmlns="http://www.w3.org/2000/svg">
<path d="M73.9567 36.0066C72.9244 36.0009 71.8937 36.0868 70.8767 36.2633C70.6111 34.6577 70.006 33.1272 69.1018 31.7741C68.1976 30.421 67.0151 29.2763 65.6333 28.4166L64.6067 27.83L63.91 28.82C63.0351 30.1532 62.402 31.6302 62.04 33.1833C61.6781 34.5511 61.5987 35.9784 61.8068 37.3779C62.0148 38.7774 62.5059 40.1199 63.25 41.3233C61.5709 42.0718 59.769 42.5067 57.9333 42.6066H9.64333C9.03698 42.6065 8.45491 42.8449 8.02274 43.2702C7.59057 43.6955 7.34295 44.2737 7.33333 44.88C7.2882 49.1175 8.00864 53.3284 9.45999 57.31C10.7628 61.222 13.3464 64.5806 16.7933 66.8433C21.8034 69.3863 27.3874 70.5865 33 70.3266C35.9717 70.3781 38.9419 70.1572 41.8733 69.6666C45.9822 68.931 49.9369 67.5053 53.57 65.45C56.5696 63.6312 59.2563 61.3407 61.5267 58.6666C64.9126 54.6834 67.5577 50.1258 69.3367 45.21H70.0333C71.5325 45.2654 73.0277 45.0216 74.4316 44.4928C75.8355 43.9639 77.12 43.1607 78.21 42.13C79.1618 41.2428 79.9012 40.1524 80.3733 38.94L80.6667 38.1333L79.9333 37.5466C78.1571 36.4071 76.0623 35.8674 73.9567 36.0066Z" fill="black"/>
<path d="M20.57 34.2834H14.1167C13.9672 34.2831 13.8233 34.3398 13.7143 34.442C13.6052 34.5442 13.5393 34.6842 13.53 34.8334V40.6267C13.5393 40.7759 13.6052 40.9158 13.7143 41.018C13.8233 41.1202 13.9672 41.177 14.1167 41.1767H20.57C20.7194 41.177 20.8634 41.1202 20.9724 41.018C21.0814 40.9158 21.1473 40.7759 21.1567 40.6267V34.8334C21.1473 34.6842 21.0814 34.5442 20.9724 34.442C20.8634 34.3398 20.7194 34.2831 20.57 34.2834ZM29.5167 34.2834H23.0267C22.8772 34.2831 22.7333 34.3398 22.6243 34.442C22.5152 34.5442 22.4493 34.6842 22.44 34.8334V40.6267C22.4493 40.7759 22.5152 40.9158 22.6243 41.018C22.7333 41.1202 22.8772 41.177 23.0267 41.1767H29.5167C29.6625 41.1767 29.8024 41.1188 29.9056 41.0156C30.0087 40.9125 30.0667 40.7726 30.0667 40.6267V34.8334C30.0667 34.6875 30.0087 34.5476 29.9056 34.4445C29.8024 34.3413 29.6625 34.2834 29.5167 34.2834ZM38.5733 34.2834H32.0833C31.9375 34.2834 31.7976 34.3413 31.6944 34.4445C31.5913 34.5476 31.5333 34.6875 31.5333 34.8334V40.6267C31.5333 40.7726 31.5913 40.9125 31.6944 41.0156C31.7976 41.1188 31.9375 41.1767 32.0833 41.1767H38.5733C38.7192 41.1767 38.8591 41.1188 38.9622 41.0156C39.0654 40.9125 39.1233 40.7726 39.1233 40.6267V34.8334C39.1233 34.6875 39.0654 34.5476 38.9622 34.4445C38.8591 34.3413 38.7192 34.2834 38.5733 34.2834ZM41.03 34.2834C40.9467 34.2603 40.8591 34.2571 40.7743 34.2742C40.6896 34.2913 40.61 34.3281 40.5422 34.3817C40.4743 34.4352 40.42 34.5041 40.3837 34.5825C40.3475 34.661 40.3302 34.747 40.3333 34.8334V40.6267C40.3333 40.6989 40.3476 40.7704 40.3752 40.8372C40.4028 40.9039 40.4434 40.9645 40.4944 41.0156C40.5455 41.0667 40.6061 41.1072 40.6729 41.1348C40.7396 41.1625 40.8111 41.1767 40.8833 41.1767H47.6667C47.8125 41.1767 47.9524 41.1188 48.0556 41.0156C48.1587 40.9125 48.2167 40.7726 48.2167 40.6267V34.8334C48.2167 34.6875 48.1587 34.5476 48.0556 34.4445C47.9524 34.3413 47.8125 34.2834 47.6667 34.2834H41.03ZM23.0267 25.9967H29.3333C29.4889 25.9967 29.6381 26.0585 29.7482 26.1685C29.8582 26.2786 29.92 26.4278 29.92 26.5834V32.3034C29.9364 32.3891 29.9334 32.4773 29.9114 32.5618C29.8893 32.6462 29.8487 32.7246 29.7925 32.7914C29.7363 32.8581 29.6659 32.9115 29.5865 32.9476C29.5071 32.9837 29.4206 33.0016 29.3333 33H23.0267C22.8808 33 22.7409 32.9421 22.6378 32.8389C22.5346 32.7358 22.4767 32.5959 22.4767 32.45V26.5467C22.4767 26.4745 22.4909 26.403 22.5185 26.3362C22.5462 26.2695 22.5867 26.2089 22.6378 26.1578C22.6888 26.1067 22.7495 26.0662 22.8162 26.0386C22.8829 26.0109 22.9544 25.9967 23.0267 25.9967ZM32.0833 25.9967H38.5733C38.6456 25.9967 38.7171 26.0109 38.7838 26.0386C38.8505 26.0662 38.9112 26.1067 38.9622 26.1578C39.0133 26.2089 39.0538 26.2695 39.0815 26.3362C39.1091 26.403 39.1233 26.4745 39.1233 26.5467V32.3034C39.1233 32.459 39.0615 32.6082 38.9515 32.7182C38.8415 32.8282 38.6923 32.89 38.5367 32.89H32.0833C31.9375 32.89 31.7976 32.8321 31.6944 32.7289C31.5913 32.6258 31.5333 32.4859 31.5333 32.34V26.5467C31.5333 26.4745 31.5476 26.403 31.5752 26.3362C31.6028 26.2695 31.6434 26.2089 31.6944 26.1578C31.7455 26.1067 31.8061 26.0662 31.8729 26.0386C31.9396 26.0109 32.0111 25.9967 32.0833 25.9967ZM41.03 25.9967H47.6667C47.7389 25.9967 47.8104 26.0109 47.8771 26.0386C47.9439 26.0662 48.0045 26.1067 48.0556 26.1578C48.1066 26.2089 48.1472 26.2695 48.1748 26.3362C48.2024 26.403 48.2167 26.4745 48.2167 26.5467V32.3034C48.2398 32.3867 48.2429 32.4743 48.2258 32.559C48.2088 32.6438 48.1719 32.7233 48.1184 32.7912C48.0648 32.8591 47.996 32.9133 47.9175 32.9496C47.839 32.9859 47.7531 33.0032 47.6667 33H41.03C40.9342 33.0206 40.8348 33.0168 40.7409 32.9891C40.6469 32.9613 40.5614 32.9105 40.4921 32.8413C40.4228 32.772 40.372 32.6865 40.3443 32.5925C40.3165 32.4986 40.3128 32.3992 40.3333 32.3034V26.5467C40.3302 26.4603 40.3475 26.3744 40.3837 26.2959C40.42 26.2174 40.4743 26.1486 40.5422 26.095C40.61 26.0414 40.6896 26.0046 40.7743 25.9875C40.8591 25.9704 40.9467 25.9736 41.03 25.9967Z" fill="black"/>
<path d="M47.52 17.6733H41.03C40.7263 17.6733 40.48 17.9196 40.48 18.2233V24.0167C40.48 24.3204 40.7263 24.5667 41.03 24.5667H47.52C47.8238 24.5667 48.07 24.3204 48.07 24.0167V18.2233C48.07 17.9196 47.8238 17.6733 47.52 17.6733Z" fill="black"/>
<path d="M50.05 34.2833C49.9041 34.2833 49.7642 34.3413 49.6611 34.4444C49.5579 34.5476 49.5 34.6875 49.5 34.8333V40.6267C49.5 40.7725 49.5579 40.9124 49.6611 41.0156C49.7642 41.1187 49.9041 41.1767 50.05 41.1767H56.54C56.6122 41.1767 56.6837 41.1624 56.7505 41.1348C56.8172 41.1072 56.8778 41.0666 56.9289 41.0156C56.98 40.9645 57.0205 40.9039 57.0481 40.8371C57.0758 40.7704 57.09 40.6989 57.09 40.6267V34.8333C57.09 34.7611 57.0758 34.6896 57.0481 34.6228C57.0205 34.5561 56.98 34.4955 56.9289 34.4444C56.8778 34.3933 56.8172 34.3528 56.7505 34.3252C56.6837 34.2975 56.6122 34.2833 56.54 34.2833H50.05Z" fill="black"/>
</svg>
