<svg width="338" height="323" viewBox="0 0 338 323" fill="none" xmlns="http://www.w3.org/2000/svg">
<path d="M169 296.083C149.518 296.083 131.21 292.548 114.075 285.478C96.9402 278.408 82.0354 268.821 69.3604 256.718C56.6854 244.605 46.6533 230.362 39.2643 213.988C31.8752 197.613 28.176 180.117 28.1666 161.5C28.1666 142.883 31.8658 125.387 39.2643 109.013C46.6627 92.6383 56.6948 78.3949 69.3604 66.2824C82.0354 54.1699 96.9402 44.5831 114.075 37.5219C131.21 30.4608 149.518 26.9257 169 26.9167C188.482 26.9167 206.79 30.4518 223.925 37.5219C241.06 44.592 255.965 54.1788 268.64 66.2824C281.315 78.3949 291.351 92.6383 298.75 109.013C306.148 125.387 309.843 142.883 309.833 161.5C309.833 180.117 306.134 197.613 298.736 213.988C291.337 230.362 281.305 244.605 268.64 256.718C255.965 268.83 241.06 278.422 223.925 285.492C206.79 292.562 188.482 296.092 169 296.083Z" fill="#DAAA9E" fill-opacity="0.8"/>
</svg>
