<svg width="87" height="88" viewBox="0 0 87 88" fill="none" xmlns="http://www.w3.org/2000/svg">
<path d="M60.9181 3.66669C57.727 3.69037 54.5535 4.14666 51.4823 5.02335L51.2648 5.08935C49.3301 4.75423 47.3729 4.56914 45.4104 4.53569C41.3758 4.46602 37.9066 5.42669 35.1154 7.02902C32.3604 6.09035 26.6474 4.47335 20.6262 4.79602C16.4321 5.01969 11.8574 6.27002 8.468 9.78269C5.08587 13.2954 3.29875 18.7294 3.67575 26.125C3.77725 28.1674 4.36812 31.493 5.35412 35.805C6.33287 40.1134 7.71762 45.155 9.4395 49.7567C11.1614 54.362 13.05 58.498 16.0007 61.3067C17.4725 62.7147 19.4989 63.899 21.8878 63.8C23.5661 63.734 25.085 63.0117 26.3936 61.9447C27.0316 62.7697 27.7131 63.129 28.333 63.4627C29.1124 63.8807 29.8736 64.1667 30.6603 64.3574C32.8387 64.9214 35.1074 65.0349 37.3303 64.691C38.2981 64.5334 39.3168 64.2254 40.3318 63.7854C40.368 64.8927 40.4115 65.978 40.4586 67.078C40.5964 70.5614 40.687 73.777 41.7528 76.5967C41.9231 77.0587 42.3908 79.431 44.2431 81.5247C46.0919 83.622 49.7169 84.9274 53.8421 84.062C56.753 83.4497 60.4578 82.346 62.9155 78.914C65.3443 75.5187 66.4426 70.6457 66.6601 62.7477C66.7145 62.3224 66.7798 61.9594 66.8486 61.6184L67.4286 61.6697H67.4939C70.6005 61.809 73.9718 61.3764 76.7884 60.093C79.2824 58.9564 81.1674 57.8124 82.5413 55.7774C82.8856 55.275 83.2626 54.6664 83.3641 53.614C83.4656 52.569 82.8566 50.9264 81.838 50.171C79.7971 48.653 78.5175 49.2287 77.1436 49.511C75.7915 49.8044 74.414 49.9657 73.0256 49.9987C76.9878 43.4574 79.8261 36.5054 81.4465 30.3527C82.4035 26.7227 82.9436 23.375 82.9871 20.449C83.0306 17.523 82.7877 14.9307 81.0006 12.6867C75.4145 5.68335 67.5591 3.74735 61.4836 3.68135C61.2951 3.67769 61.1066 3.67402 60.9181 3.67769V3.66669ZM60.7586 5.81902C66.5043 5.76402 73.8485 7.34802 79.1193 13.959C80.3046 15.444 80.6563 17.6147 80.6164 20.2914C80.5729 22.9644 80.069 26.1617 79.1483 29.667C77.3611 36.4577 73.9826 44.3704 69.223 51.4764C69.3924 51.5941 69.5749 51.6913 69.7668 51.766C70.76 52.1694 73.022 52.514 77.5424 51.6047C78.677 51.3664 79.5108 51.2087 80.3735 51.854C80.5804 52.027 80.7447 52.2462 80.8535 52.4943C80.9624 52.7425 81.0127 53.0128 81.0006 53.284C80.9535 53.6938 80.7997 54.0835 80.5548 54.4134C79.6848 55.7004 77.9593 56.9214 75.748 57.926C73.7941 58.8207 70.9884 59.2864 68.5016 59.3157C67.2546 59.3267 66.1055 59.2314 65.1304 58.9344L65.0651 58.9124C64.6881 62.4727 63.8218 69.509 63.2599 72.7174C62.8068 75.306 62.0165 77.363 60.5049 78.903C58.9969 80.443 56.8654 81.3707 53.9944 81.9757C50.4383 82.7237 47.8464 81.917 46.1753 80.5347C44.5078 79.1597 43.7429 77.33 43.2825 76.208C42.9671 75.438 42.804 74.437 42.6445 73.0987C42.4694 71.4963 42.3521 69.888 42.2929 68.277C42.1883 65.4513 42.1545 62.6234 42.1914 59.796C40.7051 61.1307 38.8564 62.018 36.8735 62.3517C34.5173 62.744 32.4075 62.359 31.1496 62.051C30.5328 61.8976 29.9365 61.6699 29.3734 61.3727C28.7861 61.0684 28.2315 60.7237 27.8617 60.0417C27.6439 59.6524 27.5743 59.196 27.666 58.7584C27.7845 58.3137 28.0475 57.9223 28.4127 57.6474C29.0942 57.1047 29.9896 56.804 31.3418 56.5254C33.8068 56.0304 34.6659 55.6894 35.1879 55.2824C35.6338 54.934 36.1376 54.23 37.0294 53.1924C37.025 53.1472 37.0214 53.102 37.0185 53.0567C35.4283 53.013 33.8693 52.6003 32.4619 51.8504C31.9508 52.382 29.3262 55.1064 26.1254 58.883C24.7805 60.4634 23.2943 61.369 21.7246 61.435C20.155 61.501 18.7376 60.7237 17.5341 59.5797C15.1235 57.2844 13.2022 53.3354 11.5275 48.873C9.86 44.407 8.497 39.435 7.53275 35.2C6.56125 30.965 5.9885 27.5514 5.90875 25.905C5.54625 18.9054 7.21375 14.19 10.0775 11.2164C12.9412 8.24269 16.8635 7.11702 20.6915 6.90069C27.5573 6.51202 34.0786 8.86235 35.3981 9.36835C37.9393 7.67435 41.2126 6.61835 45.3053 6.68435C47.2451 6.71118 49.1759 6.95715 51.0618 7.41769L51.1306 7.38835C51.9608 7.10235 52.8054 6.86035 53.6609 6.66969C55.9897 6.13694 58.3676 5.85426 60.755 5.82635L60.7586 5.81902ZM61.277 8.07035H60.7804C58.8191 8.09712 56.8648 8.31321 54.9441 8.71569C58.7568 10.3951 62.1066 12.9904 64.7026 16.2764C66.2747 18.2426 67.5792 20.413 68.5814 22.7297C68.9584 23.617 69.2121 24.3687 69.3535 24.948C69.426 25.2414 69.4768 25.487 69.4913 25.7437C69.5052 25.9061 69.4917 26.0698 69.4514 26.2277L69.4296 26.2717C69.5348 29.216 68.7916 31.2107 68.701 34.0194C68.6321 36.058 69.1614 38.4524 69.2919 41.0594C69.4151 43.516 69.1143 46.211 67.4903 48.8584C67.628 49.0197 67.7513 49.181 67.8818 49.3424C72.1774 42.7057 75.2768 35.3577 76.9261 29.0987C77.807 25.7254 78.2783 22.671 78.3181 20.251C78.3544 17.831 77.894 16.0747 77.3068 15.345C72.7103 9.57735 66.4934 8.11069 61.277 8.07035ZM44.8739 8.93202C40.8248 8.93935 37.9175 10.142 35.7171 11.9387C33.4443 13.7977 31.9217 16.3387 30.9212 18.9457C29.9527 21.551 29.3606 24.2838 29.1631 27.06L29.2102 27.0344C30.4319 26.3597 32.0378 25.6887 33.756 25.3C35.4779 24.9114 37.3303 24.7904 39.0086 25.4284C40.687 26.07 42.0754 27.5697 42.5793 29.8504C44.9899 40.799 41.8289 44.869 40.6616 47.938C40.2199 49.0508 39.8411 50.1881 39.527 51.3444C39.6756 51.3077 39.8243 51.271 39.9693 51.2564C40.606 51.2215 41.2414 51.3475 41.818 51.623C42.9925 52.0997 43.7973 53.097 44.2323 54.241C44.3446 54.5417 44.428 54.8644 44.4751 55.1944C44.5259 55.3337 44.5476 55.4767 44.544 55.6234C44.4139 59.8099 44.4284 63.9998 44.5875 68.1854C44.6673 69.9967 44.7833 71.588 44.9319 72.8457C45.0769 74.0997 45.2871 75.053 45.4213 75.3757C45.8563 76.4537 46.4979 77.8617 47.6579 78.8187C48.8179 79.772 50.4745 80.41 53.5086 79.772C56.1404 79.2184 57.7644 78.452 58.8519 77.341C59.9321 76.2374 60.581 74.701 60.9943 72.3434C61.6141 68.8124 62.8611 58.5787 63.0098 56.65C62.9445 55.2017 63.162 54.0834 63.6333 53.2327C64.1226 52.36 64.8766 51.8247 65.5255 51.535C65.8518 51.3884 66.1563 51.293 66.4064 51.2234C66.1409 50.8496 65.8628 50.4852 65.5726 50.1307C64.638 49.0194 63.8698 47.7754 63.2925 46.4384C63.0168 45.8872 62.723 45.3454 62.4116 44.814C61.9585 44.0074 61.3821 42.999 60.7804 41.866C59.5733 39.5964 58.261 36.8464 57.5795 34.166C56.9016 31.493 56.8001 28.7247 58.5401 26.7704C60.0844 25.036 62.7886 24.3174 66.8522 24.7207C66.7326 24.3687 66.6601 24.0754 66.4571 23.606C65.5352 21.4782 64.3369 19.4843 62.8938 17.677C59.45 13.3577 53.8784 9.07502 45.2654 8.93569L44.8739 8.93202ZM22.1234 9.10435C21.6884 9.10435 21.2534 9.11902 20.8184 9.14102C17.3601 9.33535 14.0904 10.3217 11.7522 12.7564C9.40687 15.1874 7.86625 19.1767 8.19975 25.784C8.26862 27.0307 8.82325 30.536 9.773 34.694C10.7227 38.8594 12.0712 43.7544 13.688 48.0774C15.3047 52.404 17.2695 56.1697 19.1327 57.9517C20.0716 58.8427 20.8873 59.202 21.6268 59.1727C22.3699 59.136 23.2616 58.718 24.3564 57.431C26.3502 55.0712 28.4174 52.7759 30.5551 50.5487C29.0454 49.2669 27.8828 47.6177 27.1766 45.7564C26.4797 43.9116 26.2673 41.9156 26.5604 39.963C26.912 37.477 26.9591 35.1524 26.9193 33.319C26.8758 31.5297 26.7452 30.3417 26.7452 29.5974V29.4947C26.742 25.6196 27.4284 21.7755 28.7716 18.1464C29.7286 15.6457 31.1569 13.1047 33.2993 11.0477C31.1968 10.3694 27.463 9.33535 23.4211 9.14102C22.9865 9.11809 22.5514 9.10587 22.1161 9.10435H22.1234ZM64.5866 26.8584C62.263 26.8877 60.958 27.478 60.2729 28.248C59.3014 29.3407 59.2108 31.2547 59.8125 33.616C60.4106 35.9774 61.6504 38.621 62.8176 40.8137C63.3976 41.9137 63.9631 42.9037 64.4199 43.703C64.8803 44.5097 65.2174 45.0817 65.4204 45.573C65.6089 46.0204 65.8191 46.4164 66.0294 46.7867C66.9284 44.9204 67.0915 43.0907 66.9973 41.1804C66.8776 38.819 66.3194 36.4027 66.4028 33.957C66.4934 31.097 67.0698 29.2307 67.1205 27.0197C66.28 26.9129 65.4337 26.859 64.5866 26.8584ZM36.3841 27.2434C35.6741 27.25 34.9668 27.3336 34.2744 27.4927C32.898 27.8205 31.5697 28.3283 30.3231 29.0034C29.9062 29.2234 29.5039 29.48 29.1269 29.7697L29.0544 29.8357C29.0761 30.327 29.174 31.5187 29.2175 33.2677C29.2538 35.1854 29.2103 37.631 28.8333 40.271C28.014 46.0204 32.2625 50.7797 37.2578 50.787C37.5478 49.6064 38.0299 48.411 38.5084 47.1497C39.9004 43.472 42.6373 40.7917 40.3318 30.3234C39.9548 28.611 39.208 27.918 38.1785 27.5257C37.6014 27.3256 36.994 27.23 36.3841 27.2434ZM63.4991 27.929H63.6731C63.8979 27.9364 64.1081 27.962 64.2894 28.0024C64.4562 28.036 64.6157 28.0993 64.7606 28.1894C64.8262 28.2292 64.8829 28.2824 64.9272 28.3455C64.9715 28.4086 65.0024 28.4803 65.018 28.556V28.5854C65.0237 28.7461 64.9807 28.9047 64.8948 29.04C64.793 29.2245 64.6661 29.3936 64.5178 29.5424C64.1671 29.9203 63.7036 30.1715 63.1983 30.2574C62.7032 30.3167 62.2037 30.1929 61.7917 29.909C61.625 29.7994 61.4749 29.6661 61.3459 29.513C61.2351 29.3949 61.1597 29.2474 61.1284 29.0877C61.1207 29.0093 61.1297 28.9301 61.1547 28.8555C61.1797 28.7809 61.2202 28.7126 61.2734 28.655C61.3871 28.5296 61.5238 28.4275 61.6758 28.3544C62.2484 28.0834 62.8707 27.936 63.5027 27.9217L63.4991 27.929ZM36.7176 28.4937C36.8989 28.4937 37.091 28.512 37.2868 28.5377C37.8088 28.611 38.2764 28.7467 38.6316 28.9484C38.8056 29.04 38.9579 29.1574 39.0884 29.304C39.1562 29.3822 39.2079 29.4731 39.2406 29.5717C39.2731 29.6696 39.2842 29.7734 39.2733 29.876C39.2395 30.0702 39.15 30.25 39.0159 30.393C38.8753 30.5635 38.7104 30.7118 38.5265 30.833C38.0765 31.1434 37.5302 31.2777 36.9895 31.2107C36.4404 31.1227 35.9357 30.8532 35.554 30.4444C35.3932 30.2817 35.2565 30.0965 35.148 29.8944C35.0351 29.7185 34.9852 29.5089 35.0066 29.3004C35.0574 28.9337 35.3655 28.7504 35.6591 28.6404C35.9993 28.5347 36.355 28.49 36.7104 28.5084L36.7176 28.4937ZM67.7476 53.1777H67.7368C67.2329 53.361 66.8196 53.4344 66.468 53.581C66.1182 53.7133 65.8282 53.9702 65.6524 54.3034C65.4349 54.6884 65.2536 55.374 65.308 56.54C65.4639 56.6448 65.6352 56.724 65.8155 56.7747C66.3991 56.9507 67.3815 57.068 68.4799 57.0497C70.6621 57.024 73.3519 56.5254 74.7801 55.8727C75.951 55.3374 77.0385 54.6407 78.01 53.8047C73.2359 54.7727 70.5425 54.516 68.8859 53.845C68.4761 53.6788 68.0926 53.4527 67.7476 53.174V53.1777ZM40.2411 53.493H40.1686C39.9874 53.5077 39.7228 53.5664 39.2153 54.1237C38.019 55.4364 37.6058 56.2577 36.6198 57.0277C35.641 57.7977 34.3614 58.2047 31.8094 58.718C31.001 58.8794 30.5406 59.059 30.2289 59.202C30.3304 59.2827 30.3195 59.3047 30.4681 59.3817C30.8415 59.5834 31.3236 59.7594 31.7079 59.8584C32.8062 60.126 34.6079 60.4414 36.4893 60.126C38.367 59.8107 40.3245 58.927 41.992 56.6317C42.282 56.2357 42.311 55.649 42.0754 55.0184C41.8325 54.395 41.3105 53.8524 40.9408 53.6984C40.7194 53.5951 40.4833 53.5283 40.2411 53.5004V53.493Z" fill="#282828"/>
</svg>
