<svg width="87" height="89" viewBox="0 0 87 89" fill="none" xmlns="http://www.w3.org/2000/svg">
<path d="M84.1 44.9984C84.1 54.8299 65.9228 62.7984 43.5 62.7984C21.0772 62.7984 2.89999 54.8299 2.89999 44.9984C2.89999 35.1668 21.0772 27.1984 43.5 27.1984C65.9228 27.1984 84.1 35.1668 84.1 44.9984Z" stroke="black"/>
<path d="M24.1628 81.5181C32.6134 86.2054 48.1168 73.6445 58.8004 53.4771C69.4782 33.3038 71.2878 13.1601 62.8372 8.47873C54.3866 3.79139 38.8832 16.3523 28.1996 36.5197C17.5218 56.693 15.7122 76.8367 24.1628 81.5181Z" stroke="black"/>
<path d="M62.8372 81.5181C54.3866 86.2054 38.8832 73.6445 28.1996 53.4771C17.5218 33.3038 15.7122 13.1601 24.1628 8.47873C32.6134 3.79139 48.1168 16.3523 58.8004 36.5197C69.4782 56.693 71.2878 76.8367 62.8372 81.5181Z" stroke="black"/>
<path d="M37.7 44.9984C37.7 46.572 38.3111 48.0812 39.3988 49.1939C40.4865 50.3066 41.9617 50.9317 43.5 50.9317C45.0382 50.9317 46.5135 50.3066 47.6012 49.1939C48.6889 48.0812 49.3 46.572 49.3 44.9984C49.3 43.4248 48.6889 41.9156 47.6012 40.8029C46.5135 39.6902 45.0382 39.0651 43.5 39.0651C41.9617 39.0651 40.4865 39.6902 39.3988 40.8029C38.3111 41.9156 37.7 43.4248 37.7 44.9984Z" stroke="black"/>
</svg>
