<svg width="88" height="89" viewBox="0 0 88 89" fill="none" xmlns="http://www.w3.org/2000/svg">
<path d="M18.106 25.059C14.366 25.059 10.571 26.5331 9.9385 27.3396C9.7735 27.6734 9.3885 30.3712 10.296 30.3712C10.5985 30.3712 10.736 30.4268 11.616 30.0096C14.916 28.7025 17.006 28.7303 17.3085 28.7303C21.021 28.3687 23.166 30.9275 22.836 34.2371V36.184C19.701 35.4331 17.9135 35.4053 17.0335 35.4053C12.4685 35.1271 8.25 37.5635 8.25 42.9146C8.25 48.7831 13.4283 50.0346 15.4358 49.9512C18.4333 49.979 21.2933 48.6162 23.1908 46.2521C24.7033 49.6731 25.6658 49.4506 25.6933 49.4506C25.9683 49.4506 26.1883 49.3393 26.4083 49.2003L27.9758 48.0878C28.2508 47.9209 28.4708 47.6428 28.4983 47.309C28.4708 46.5025 27.0408 45.2509 27.1508 42.4418V33.7643C27.2367 32.5815 27.0864 31.3934 26.7089 30.2705C26.3314 29.1477 25.7345 28.1131 24.9535 27.2284C23.0442 25.6185 20.5823 24.8385 18.106 25.059ZM71.3818 25.059C65.8818 25.059 62.7193 28.5356 62.8018 32.0678C62.8018 36.9071 67.6418 38.4368 68.1918 38.6037C72.8393 40.0778 73.4718 40.1334 74.7643 41.2459C75.8643 42.3862 75.7268 44.6112 74.1043 45.5846C73.6368 45.8628 71.6293 47.0865 67.0918 46.1409C65.5793 45.835 64.7818 45.4734 63.5443 44.945C63.2143 44.8337 62.4443 44.639 62.4443 45.6681V47.0309C62.4443 47.6706 62.8293 48.2547 63.4068 48.5328C66.2943 50.0068 69.7593 50.0625 70.5018 50.0625C70.6118 50.0625 76.9368 50.0652 79.0543 45.7515C79.4888 44.8615 80.6218 41.6075 78.5043 38.8262C76.7443 36.7403 75.2318 36.5178 70.7218 35.1271C70.3368 35.0159 67.0093 34.1537 67.0368 31.7896C66.8718 28.7581 70.9418 28.5912 71.7943 28.6468C75.2318 28.5912 76.9368 29.8984 77.8718 29.9818C78.2843 29.9818 78.4768 29.7315 78.4768 29.1753V27.8959C78.4936 27.5884 78.4063 27.2843 78.2293 27.0337C77.1293 25.5875 72.9218 25.059 71.3818 25.059ZM29.6368 25.7543C29.3343 25.81 29.1143 26.1159 29.1693 26.4218C29.2243 26.7834 29.2793 27.145 29.4168 27.5065L35.5768 48.06C35.7143 48.7275 36.1543 49.4506 37.1168 49.3393H39.3718C40.7468 49.4784 40.9393 48.1434 40.9668 48.0043L45.0093 30.8718L49.1068 48.0321C49.1343 48.1712 49.3268 49.5062 50.6743 49.3671H52.9568C53.9468 49.4784 54.4143 48.7553 54.5518 48.0878C61.4818 25.5318 61.0143 27.0615 61.0693 26.839C61.1793 25.6709 60.5193 25.7543 60.4093 25.7821H57.9618C56.7243 25.6431 56.4768 26.7834 56.4218 27.0615L51.8568 44.8893L47.7318 27.0615C47.5393 25.6987 46.4393 25.7543 46.1643 25.7821H44.0468C42.8368 25.6709 42.5343 26.6443 42.4518 27.0615L38.3543 44.639L33.9543 27.0615C33.8443 26.5053 33.4868 25.6431 32.4143 25.7543H29.6368ZM17.9383 38.6315C19.9183 38.6593 21.6288 38.9653 22.8113 39.2434C22.8113 40.634 22.8608 41.4128 22.5583 42.6643C22.1733 43.9993 20.471 46.419 16.456 46.4746C14.146 46.5859 12.6335 44.7503 12.771 42.6643C12.6335 39.3268 16.0435 38.4925 17.941 38.6315H17.9383ZM79.8628 55.6305C77.297 55.6667 74.2665 56.248 71.9675 57.8806C71.258 58.3784 71.3818 59.0681 72.171 58.9764C74.756 58.6621 80.509 57.9556 81.5375 59.2851C82.5688 60.6145 80.399 66.0992 79.4393 68.5522C79.1423 69.2837 79.7693 69.5868 80.432 69.0306C84.733 65.3871 85.8495 57.7498 84.9695 56.654C84.5295 56.1033 82.4285 55.5944 79.8628 55.6305ZM3.34675 58.4118C2.74725 58.4952 2.48875 59.2628 3.11575 59.8719C13.8875 70.0902 28.1215 75.0937 43.9258 75.0937C55.198 75.0937 68.2825 71.3752 77.3163 64.3664C78.8095 63.1983 77.5363 61.4545 76.0073 62.1414C65.879 66.6637 54.8763 68.8415 44.8635 68.8415C30.0245 68.8415 15.6585 65.707 4.03975 58.5898C3.83569 58.452 3.59109 58.3892 3.34675 58.4118Z" fill="#282828"/>
</svg>
