<svg width="140" height="39" viewBox="0 0 140 39" fill="none" xmlns="http://www.w3.org/2000/svg">
<path d="M0.911094 30.2653V15.3508H20.3645V14.4784H0.911094V0.872134H21.5945V0H0V31.1374H21.7766V30.2653H0.911094ZM39.3168 8.72186L31.2531 18.8831L23.3713 8.72213H22.1867L30.7062 19.5374L21.3664 31.1372H22.4599L31.2525 20.191L40.0909 31.1372H41.2297L31.8448 19.5369L40.4097 8.7216H39.3165L39.3168 8.72186ZM43.9636 38.8129V24.8579H44.0546C44.6015 26.893 45.6796 28.5284 47.2894 29.7641C48.8991 30.9995 50.9491 31.6175 53.4395 31.6175C55.0493 31.6175 56.4769 31.305 57.7221 30.6799C58.9673 30.0549 60.0075 29.2045 60.8429 28.1287C61.6779 27.0529 62.3159 25.8028 62.7564 24.3781C63.1966 22.9537 63.417 21.4563 63.417 19.8866C63.417 18.2002 63.1889 16.6446 62.7334 15.2202C62.2779 13.7955 61.6172 12.5598 60.7518 11.5134C59.8861 10.4667 58.8383 9.65237 57.6081 9.07129C56.3782 8.4897 54.9886 8.1989 53.4395 8.1989C52.255 8.1989 51.1541 8.36615 50.1367 8.7004C49.1192 9.03491 48.2158 9.5071 47.4261 10.1178C46.6318 10.7331 45.9404 11.461 45.3759 12.2764C44.7989 13.105 44.3584 14.0136 44.0546 15.0022H43.9636V8.72186H43.0525V38.8129H43.9636ZM53.4395 30.7885C50.5848 30.7885 48.2915 29.851 46.5604 27.9758C44.8293 26.1007 43.9636 23.4039 43.9636 19.8861C43.9636 18.4323 44.1763 17.0514 44.6015 15.7432C45.0267 14.435 45.6416 13.2864 46.4464 12.2981C47.2514 11.3095 48.2461 10.5245 49.4304 9.94317C50.6149 9.36157 51.9515 9.07077 53.4395 9.07077C54.9582 9.07077 56.2871 9.36157 57.426 9.94317C58.5648 10.5245 59.5066 11.3168 60.2506 12.3198C60.9946 13.3228 61.5565 14.4714 61.9363 15.7649C62.3159 17.0587 62.5056 18.4323 62.5056 19.8861C62.5056 21.1945 62.3312 22.4957 61.9817 23.7892C61.6325 25.083 61.0933 26.246 60.3643 27.2783C59.6356 28.3101 58.7018 29.1532 57.5627 29.8075C56.4236 30.4616 55.0493 30.7885 53.4395 30.7885ZM68.4283 31.1374V18.447C68.4283 17.226 68.6104 16.0337 68.9752 14.871C69.3394 13.7081 69.9013 12.6831 70.6606 11.7966C71.42 10.9098 72.3841 10.212 73.5536 9.70315C74.7228 9.19431 76.1124 8.98361 77.7221 9.07077V8.19864C76.3249 8.16984 75.1026 8.31485 74.0548 8.6347C73.0067 8.95456 72.1033 9.39062 71.3439 9.94317C70.5846 10.4954 69.9773 11.1422 69.5218 11.8837C69.0666 12.6241 68.7287 13.425 68.5193 14.2604H68.4283V8.72186H67.5172V31.1377L68.4283 31.1374ZM78.861 20.1041H98.4509C98.5119 18.5632 98.3525 17.0807 97.9727 15.656C97.5931 14.2313 96.9855 12.9666 96.1505 11.862C95.3151 10.7572 94.237 9.8704 92.9157 9.20164C91.5945 8.53288 90.0227 8.19864 88.2006 8.19864C86.8943 8.19864 85.6188 8.46038 84.3735 8.98387C83.1283 9.5071 82.0348 10.2701 81.0934 11.2731C80.1519 12.2761 79.3926 13.5045 78.8156 14.9585C78.2387 16.4119 77.9499 18.069 77.9499 19.9298C77.9499 21.5869 78.1473 23.1351 78.5422 24.5742C78.937 26.0133 79.5443 27.2636 80.3644 28.3247C81.1847 29.3858 82.2402 30.2072 83.5308 30.7885C84.8214 31.3701 86.3781 31.6463 88.2006 31.6172C90.8731 31.6172 93.1208 30.8974 94.943 29.4586C96.7654 28.0193 97.8436 25.9915 98.1777 23.3749H97.2666C96.8718 25.8463 95.8617 27.6997 94.237 28.9351C92.6119 30.1708 90.5696 30.7885 88.1092 30.7885C86.4388 30.7885 85.0265 30.5124 83.8723 29.9601C82.7184 29.4078 81.7767 28.6516 81.0477 27.6924C80.319 26.7328 79.7798 25.6062 79.4306 24.3124C79.0811 23.0189 78.8914 21.6159 78.861 20.1041ZM97.5398 19.232H78.8613C78.9521 17.662 79.2559 16.252 79.7721 15.0019C80.2886 13.7516 80.9643 12.6831 81.7997 11.7966C82.6347 10.9098 83.6068 10.234 84.7153 9.76858C85.8238 9.30346 87.016 9.07077 88.2916 9.07077C89.8103 9.07077 91.1463 9.33984 92.3007 9.87773C93.4547 10.4156 94.4191 11.1498 95.1937 12.0801C95.9681 13.0103 96.5527 14.0934 96.9475 15.3288C97.3424 16.5645 97.5398 17.8657 97.5398 19.232ZM117.358 15.3508H118.269C118.269 12.8504 117.509 11.0333 115.991 9.89946C114.472 8.76558 112.407 8.19864 109.795 8.19864C108.337 8.19864 107.107 8.37322 106.105 8.72213C105.103 9.07077 104.282 9.5215 103.645 10.0738C103.007 10.6261 102.551 11.2367 102.278 11.9055C102.004 12.5742 101.868 13.2139 101.868 13.8243C101.868 15.0454 102.096 16.0193 102.551 16.7462C103.007 17.473 103.721 18.04 104.692 18.447C105.361 18.7375 106.12 18.9993 106.97 19.2322C107.821 19.4647 108.808 19.7117 109.932 19.9732C110.934 20.2062 111.921 20.4386 112.893 20.671C113.865 20.9037 114.723 21.2163 115.467 21.6086C116.211 22.0012 116.819 22.5027 117.289 23.1134C117.76 23.7238 117.995 24.5234 117.995 25.5118C117.995 26.4713 117.76 27.2853 117.289 27.9538C116.823 28.6191 116.208 29.1776 115.49 29.5895C114.761 30.0109 113.948 30.3161 113.052 30.5051C112.156 30.694 111.283 30.7885 110.433 30.7885C107.669 30.7885 105.55 30.1999 104.077 29.0225C102.604 27.8449 101.868 25.9915 101.868 23.462H100.957C100.957 26.2823 101.754 28.3465 103.348 29.6549C104.943 30.9631 107.305 31.6172 110.433 31.6172C111.435 31.6172 112.445 31.5081 113.463 31.29C114.48 31.072 115.391 30.716 116.196 30.2216C116.994 29.7342 117.664 29.0777 118.155 28.303C118.656 27.5178 118.907 26.5585 118.907 25.4246C118.907 24.3488 118.686 23.4767 118.246 22.8079C117.806 22.1394 117.229 21.5869 116.515 21.1508C115.801 20.7148 114.996 20.3732 114.1 20.1261C113.199 19.8775 112.296 19.6376 111.389 19.4063C110.274 19.1262 109.158 18.8501 108.041 18.5779C107.084 18.3452 106.196 18.069 105.376 17.7492C104.586 17.4293 103.956 16.9715 103.485 16.3755C103.014 15.7796 102.779 14.9291 102.779 13.8243C102.779 13.6209 102.84 13.2574 102.961 12.7342C103.083 12.2107 103.371 11.6801 103.827 11.1422C104.282 10.6046 104.981 10.1248 105.923 9.70315C106.864 9.28174 108.155 9.07077 109.795 9.07077C110.919 9.07077 111.944 9.18725 112.87 9.41968C113.796 9.65237 114.594 10.023 115.262 10.5318C115.93 11.0407 116.446 11.6874 116.811 12.4724C117.175 13.2576 117.358 14.2169 117.358 15.3508ZM138.451 15.3508H139.362C139.362 12.8504 138.603 11.0333 137.084 9.89946C135.566 8.76558 133.5 8.19864 130.888 8.19864C129.431 8.19864 128.2 8.37322 127.198 8.72213C126.196 9.07077 125.376 9.5215 124.738 10.0738C124.1 10.6261 123.645 11.2367 123.371 11.9055C123.098 12.5742 122.961 13.2139 122.961 13.8243C122.961 15.0454 123.189 16.0193 123.645 16.7462C124.1 17.473 124.814 18.04 125.786 18.447C126.454 18.7375 127.213 18.9993 128.064 19.2322C128.914 19.4647 129.901 19.7117 131.025 19.9732C132.027 20.2062 133.014 20.4386 133.986 20.671C134.958 20.9037 135.816 21.2163 136.56 21.6086C137.304 22.0012 137.912 22.5027 138.383 23.1134C138.853 23.7238 139.089 24.5234 139.089 25.5118C139.089 26.4713 138.853 27.2853 138.383 27.9538C137.916 28.6191 137.302 29.1776 136.583 29.5895C135.854 30.0109 135.042 30.3161 134.146 30.5051C133.25 30.694 132.377 30.7885 131.526 30.7885C128.762 30.7885 126.644 30.1999 125.171 29.0225C123.698 27.8449 122.961 25.9915 122.961 23.462H122.05C122.05 26.2823 122.847 28.3465 124.442 29.6549C126.036 30.9631 128.398 31.6172 131.526 31.6172C132.529 31.6172 133.538 31.5081 134.556 31.29C135.573 31.072 136.484 30.716 137.289 30.2216C138.087 29.7342 138.758 29.0777 139.248 28.303C139.75 27.5178 140 26.5585 140 25.4246C140 24.3488 139.78 23.4767 139.339 22.8079C138.899 22.1394 138.322 21.5869 137.608 21.1508C136.895 20.7148 136.09 20.3732 135.194 20.1261C134.293 19.8775 133.389 19.6376 132.483 19.4063C131.368 19.1262 130.252 18.8501 129.134 18.5779C128.178 18.3452 127.289 18.069 126.469 17.7492C125.68 17.4293 125.049 16.9715 124.579 16.3755C124.108 15.7796 123.872 14.9291 123.872 13.8243C123.872 13.6209 123.933 13.2574 124.055 12.7342C124.176 12.2107 124.465 11.6801 124.92 11.1422C125.376 10.6046 126.074 10.1248 127.016 9.70315C127.958 9.28174 129.248 9.07077 130.889 9.07077C132.012 9.07077 133.037 9.18725 133.964 9.41968C134.89 9.65237 135.687 10.023 136.355 10.5318C137.024 11.0407 137.54 11.6874 137.904 12.4724C138.269 13.2576 138.451 14.2169 138.451 15.3508H138.451Z" fill="#222222"/>
</svg>
