<svg width="87" height="89" viewBox="0 0 87 89" fill="none" xmlns="http://www.w3.org/2000/svg">
<mask id="mask0_45_18" style="mask-type:luminance" maskUnits="userSpaceOnUse" x="0" y="0" width="87" height="89">
<path d="M0 0H87V89H0V0Z" fill="white"/>
</mask>
<g mask="url(#mask0_45_18)">
<path fill-rule="evenodd" clip-rule="evenodd" d="M41.267 15.5268C42.6481 15.9539 44.1186 15.9771 45.5119 15.5935L68.4436 57.0601C67.3819 58.1064 66.6359 59.4423 66.294 60.9093H20.6987C20.3319 59.3691 19.5241 57.9759 18.3787 56.9081L41.267 15.5268ZM37.9284 13.4316C37.9936 13.5057 38.0661 13.5762 38.135 13.6466L15.1996 55.1243C15.0915 55.0947 14.9827 55.0675 14.8734 55.0428V33.9535C15.9161 33.7148 16.8989 33.2566 17.7589 32.6079C18.619 31.9592 19.3375 31.1343 19.8686 30.1858C20.3976 29.2427 20.7317 28.1985 20.8502 27.118C20.9686 26.0374 20.869 24.9435 20.5574 23.9039L37.9284 13.4316ZM50.8696 10.3351C51.237 9.1551 51.3286 7.90336 51.1369 6.68057C50.9453 5.45777 50.4758 4.29806 49.7662 3.29471C49.0566 2.29135 48.1267 1.47237 47.0513 0.903641C45.976 0.334908 44.7851 0.0322996 43.5746 0.0201559C42.3641 0.00801224 41.1677 0.286672 40.0816 0.833722C38.9955 1.38077 38.0501 2.18094 37.3214 3.16986C36.5927 4.15879 36.1011 5.30886 35.886 6.52757C35.671 7.74629 35.7385 8.99962 36.0833 10.1868L18.7014 20.6665C17.8672 19.7914 16.846 19.1261 15.718 18.723C14.5901 18.32 13.386 18.19 12.2007 18.3435C11.0153 18.497 9.88088 18.9296 8.88662 19.6075C7.89236 20.2853 7.06535 21.1899 6.47062 22.25C5.87665 23.3114 5.52982 24.4986 5.45707 25.7194C5.38432 26.9402 5.58761 28.1617 6.05116 29.2891C6.5147 30.4165 7.22602 31.4194 8.12989 32.22C9.03375 33.0206 10.1058 33.5973 11.2629 33.9053V55.0984C10.1083 55.4094 9.03924 55.988 8.13829 56.7894C7.23733 57.5908 6.52867 58.5934 6.06715 59.7198C5.60562 60.8462 5.40359 62.0661 5.4767 63.2852C5.54981 64.5042 5.89609 65.6897 6.48875 66.75C7.08266 67.8075 7.9079 68.71 8.8998 69.3867C9.8917 70.0634 11.0233 70.496 12.206 70.6504C13.3886 70.8049 14.5902 70.6771 15.7164 70.277C16.8427 69.877 17.8632 69.2155 18.6977 68.3446L36.0796 78.8243C35.8719 79.5532 35.7669 80.3086 35.7679 81.0679C35.7655 82.1083 35.9637 83.1391 36.3512 84.1011C36.7386 85.0631 37.3077 85.9375 38.0259 86.6743C38.7441 87.411 39.5973 87.9957 40.5366 88.3948C41.4759 88.7938 42.4829 88.9995 43.5 89C44.7376 88.9972 45.9565 88.6913 47.0549 88.1078C48.1532 87.5244 49.099 86.6803 49.8131 85.6463C50.5272 84.6122 50.9888 83.4183 51.1594 82.1643C51.3299 80.9104 51.2045 79.6328 50.7935 78.4386L68.0159 68.0553C68.8277 68.9939 69.8463 69.7212 70.9875 70.177C72.1287 70.6328 73.3596 70.804 74.5783 70.6764C75.7971 70.5489 76.9686 70.1262 77.9959 69.4434C79.0232 68.7606 79.8767 67.8373 80.4859 66.75C81.0966 65.6724 81.4505 64.4627 81.5189 63.2191C81.5874 61.9754 81.3684 60.7328 80.8798 59.5919C80.3912 58.4509 79.6466 57.4438 78.7065 56.6522C77.7665 55.8605 76.6573 55.3066 75.4689 55.0353V33.972C76.6583 33.7003 77.7687 33.1467 78.7107 32.3557C79.6527 31.5647 80.3999 30.5585 80.8923 29.4181C81.3846 28.2776 81.6082 27.0349 81.5452 25.7898C81.4822 24.5448 81.1342 23.3323 80.5294 22.25C79.9274 21.1807 79.0892 20.2703 78.0818 19.5916C77.0744 18.913 75.9258 18.4848 74.7278 18.3414C73.5297 18.1979 72.3155 18.3432 71.1822 18.7657C70.0488 19.1881 69.0278 19.8759 68.2007 20.7741L50.8733 10.3314L50.8696 10.3351ZM48.6982 13.8098L48.9701 13.5428L66.3991 24.0485C66.115 25.0693 66.0337 26.138 66.1601 27.1915C66.2865 28.245 66.618 29.2619 67.135 30.1821C67.6416 31.0906 68.3203 31.8865 69.1314 32.5232C69.9424 33.16 70.8695 33.6248 71.8584 33.8904V55.1021C71.7636 55.1286 71.6693 55.1571 71.5756 55.1874L48.6982 13.8098ZM66.4426 65.1999L49.1369 75.6351C48.4157 74.8455 47.5435 74.2161 46.5743 73.7861C45.6052 73.3561 44.56 73.1347 43.5036 73.1357C41.3069 73.1357 39.3276 74.0702 37.9211 75.5758L20.5755 65.1183C20.619 64.9737 20.6589 64.8291 20.6915 64.6807H66.3012C66.3447 64.855 66.3882 65.0293 66.4426 65.1999Z" fill="#282828"/>
</g>
</svg>
