<svg width="88" height="89" viewBox="0 0 88 89" fill="none" xmlns="http://www.w3.org/2000/svg">
<path d="M58.575 16.6875C58.3562 16.6875 58.1464 16.7754 57.9916 16.9319C57.8369 17.0884 57.75 17.3006 57.75 17.5219V32.8104L54.3235 30.7884C54.112 30.6619 53.8707 30.5952 53.625 30.5952C53.3793 30.5952 53.138 30.6619 52.9265 30.7884L44.693 35.6445C44.4825 35.7674 44.3077 35.9442 44.186 36.157C44.0644 36.3698 44.0002 36.6113 44 36.8571V46.5804C44 47.081 44.264 47.5427 44.693 47.793L52.9265 52.6491C53.138 52.7756 53.3793 52.8423 53.625 52.8423C53.8707 52.8423 54.112 52.7756 54.3235 52.6491L62.557 47.793C62.7675 47.6701 62.9423 47.4933 63.064 47.2805C63.1856 47.0677 63.2498 46.8262 63.25 46.5804V20.1084C63.2493 19.8659 63.186 19.6277 63.0664 19.4175C62.9468 19.2072 62.775 19.0322 62.568 18.9097L58.9847 16.8015C58.8614 16.7278 58.721 16.6885 58.5778 16.6875H58.575ZM31.625 30.5993C31.3798 30.599 31.1388 30.6642 30.9265 30.7884L22.693 35.6445C22.4825 35.7674 22.3077 35.9442 22.186 36.157C22.0644 36.3698 22.0002 36.6113 22 36.8571V46.5804C22 47.081 22.264 47.5427 22.693 47.793L30.9265 52.6491C31.3583 52.8994 31.889 52.8994 32.3235 52.6491L40.557 47.793C40.7675 47.6701 40.9423 47.4933 41.064 47.2805C41.1856 47.0677 41.2498 46.8262 41.25 46.5804V36.8571C41.2503 36.6112 41.1864 36.3695 41.0647 36.1566C40.943 35.9436 40.7679 35.767 40.557 35.6445L32.3235 30.7884C32.1112 30.6642 31.8702 30.599 31.625 30.5993ZM75.625 30.5993C75.3796 30.5981 75.1384 30.6634 74.9265 30.7884L66.693 35.6445C66.4825 35.7674 66.3077 35.9442 66.186 36.157C66.0644 36.3698 66.0002 36.6113 66 36.8571V46.5804C66 47.081 66.264 47.5427 66.693 47.793L74.679 52.6741C74.8901 52.8036 75.1318 52.8731 75.3787 52.875C75.6256 52.877 75.8684 52.8114 76.0815 52.6852L80.0085 50.3768C80.1009 50.3217 80.1775 50.2433 80.2306 50.1491C80.2838 50.055 80.3118 49.9484 80.3118 49.84C80.3118 49.7316 80.2838 49.625 80.2306 49.5309C80.1775 49.4367 80.1009 49.3583 80.0085 49.3032L71.5 44.233V39.2434L75.625 36.8154L79.75 39.2434V42.72C79.75 43.1845 80.135 43.2568 80.3935 43.101C81.7837 42.2801 83.1752 41.4615 84.568 40.6452C84.7752 40.5229 84.9471 40.3479 85.0668 40.1377C85.1864 39.9274 85.2496 39.6891 85.25 39.4465V36.8599C85.2503 36.614 85.1864 36.3723 85.0647 36.1594C84.943 35.9464 84.7679 35.7698 84.557 35.6473L76.3235 30.7912C76.1114 30.6665 75.8703 30.6012 75.625 30.6021V30.5993ZM9.625 30.6049C9.37964 30.6036 9.13843 30.6689 8.9265 30.794L0.693 35.6445C0.482248 35.7685 0.307345 35.9463 0.185745 36.1601C0.0641441 36.3738 9.88123e-05 36.6161 0 36.8627V49.2754C0 49.8817 0.649 50.2572 1.166 49.954L4.818 47.8041C5.02541 47.6814 5.19747 47.5059 5.31711 47.2952C5.43675 47.0844 5.4998 46.8457 5.5 46.6026V39.2518L9.625 36.8182L13.75 39.2518V46.6026C13.7504 46.8452 13.8136 47.0835 13.9332 47.2938C14.0529 47.5041 14.2248 47.6791 14.432 47.8013L18.084 49.954C18.2019 50.0235 18.3359 50.0603 18.4724 50.0607C18.6088 50.0611 18.743 50.025 18.8613 49.9562C18.9796 49.8873 19.0778 49.7881 19.1461 49.6686C19.2143 49.5491 19.2502 49.4134 19.25 49.2754V36.8627C19.2499 36.6161 19.1859 36.3738 19.0643 36.1601C18.9427 35.9463 18.7678 35.7685 18.557 35.6445L10.3235 30.794C10.1116 30.6689 9.87036 30.6036 9.625 30.6049ZM53.625 36.8126L57.75 39.2462V44.1913L53.625 46.6249L49.5 44.1913V39.2434L53.625 36.8098V36.8126ZM75.625 38.9486L73.2682 40.3392V43.1149L75.625 44.5L77.9818 43.1149V40.3392L75.625 38.9486ZM42.3665 50.0569C42.0808 50.0553 41.7995 50.1281 41.5498 50.2683L33.8167 54.7906C33.5679 54.9333 33.3611 55.1404 33.2175 55.3907C33.074 55.6409 32.9989 55.9253 33 56.2146V65.2426C33 65.8238 33.3217 66.3717 33.8167 66.6666L35.8517 67.8403C36.828 68.327 37.1883 68.327 37.631 68.327C39.0885 68.327 39.919 67.4453 39.919 65.8878V56.9683C39.9197 56.9379 39.9144 56.9077 39.9034 56.8794C39.8924 56.851 39.8759 56.8252 39.8549 56.8035C39.8339 56.7817 39.8088 56.7644 39.7811 56.7526C39.7534 56.7408 39.7236 56.7347 39.6935 56.7347H38.7145C38.6532 56.7347 38.5945 56.7593 38.5512 56.8031C38.5078 56.847 38.4835 56.9064 38.4835 56.9683V65.8878C38.4835 66.5637 37.7767 67.259 36.6245 66.6777L34.507 65.4428C34.4725 65.4208 34.4438 65.3905 34.4237 65.3546C34.4035 65.3187 34.3925 65.2783 34.3915 65.237V56.2091C34.3915 56.1284 34.43 56.0338 34.5097 55.9921L42.2428 51.4837C42.2798 51.463 42.3214 51.4522 42.3637 51.4522C42.4061 51.4522 42.4477 51.463 42.4848 51.4837L50.226 55.9893C50.3057 56.0338 50.3442 56.1145 50.3442 56.2091V65.237C50.3441 65.2803 50.3331 65.3228 50.3125 65.3607C50.2918 65.3986 50.2621 65.4307 50.226 65.4539L42.4848 69.979C42.4477 69.9997 42.4061 70.0106 42.3637 70.0106C42.3214 70.0106 42.2798 69.9997 42.2428 69.979L40.2682 68.7887C40.2132 68.7608 40.1308 68.7469 40.0785 68.7748C39.7166 69.0094 39.3242 69.1919 38.9125 69.3171C38.7777 69.3588 38.5962 69.4422 38.984 69.6592L41.5498 71.2028C41.8006 71.3408 42.0809 71.4153 42.3665 71.4197C42.651 71.4226 42.9305 71.3435 43.1723 71.1917L50.908 66.6666C51.1569 66.5239 51.3637 66.3168 51.5072 66.0665C51.6507 65.8163 51.7258 65.5319 51.7248 65.2426V56.2146C51.7211 55.9263 51.6441 55.6437 51.501 55.3943C51.358 55.1449 51.1537 54.9369 50.908 54.7906L43.1723 50.2711C42.9267 50.1302 42.6488 50.0573 42.3665 50.0597V50.0569ZM54.4307 54.2233C54.2357 54.2236 54.0427 54.2628 53.8627 54.3386C53.6826 54.4144 53.5191 54.5254 53.3815 54.6651C53.1035 54.9473 52.9478 55.3296 52.9485 55.7279C52.9492 56.1262 53.1064 56.5079 53.3854 56.7891C53.6644 57.0702 54.0424 57.2277 54.4363 57.227C54.8301 57.2263 55.2075 57.0673 55.4855 56.7851C55.7635 56.503 55.9192 56.1207 55.9185 55.7223C55.9178 55.324 55.7606 54.9423 55.4816 54.6612C55.2026 54.38 54.8246 54.2225 54.4307 54.2233ZM54.4143 54.4624C55.1128 54.4624 55.6792 55.0187 55.6792 55.7223C55.6743 56.0601 55.5394 56.3826 55.3032 56.6214C55.0671 56.8603 54.7482 56.9967 54.4143 57.0017C54.0821 56.9981 53.765 56.8613 53.5325 56.6214C53.3 56.3816 53.1711 56.0582 53.174 55.7223C53.1729 55.5571 53.2042 55.3932 53.2661 55.2402C53.328 55.0872 53.4192 54.9481 53.5345 54.831C53.6498 54.7138 53.7869 54.621 53.9379 54.5577C54.0889 54.4944 54.2508 54.4621 54.4143 54.4624ZM53.8725 54.8713V56.5595H54.1887V55.8864H54.4857C54.6067 55.8864 54.6343 55.9365 54.6618 56.0311C54.6618 56.045 54.7112 56.4844 54.725 56.5651H55.0687C55.0251 56.4185 54.9983 56.2673 54.989 56.1145C54.9505 55.8976 54.9395 55.7474 54.7113 55.7335C54.8323 55.6917 55.033 55.6278 55.033 55.3163C55.033 54.8685 54.648 54.8713 54.4472 54.8713H53.8725ZM54.1887 55.1411H54.4582C54.5407 55.1411 54.7003 55.1411 54.7003 55.3691C54.7003 55.4637 54.659 55.6194 54.4418 55.6139H54.1887V55.1411ZM44.44 56.5206C42.2317 56.5206 40.92 57.4745 40.92 59.0432C40.92 60.762 42.2345 61.2209 44.3493 61.435C46.8793 61.6937 47.0772 62.0608 47.0772 62.5614C47.0772 63.4403 46.3787 63.8047 44.7452 63.8047C42.6965 63.8047 42.2483 63.2929 42.0998 62.2638C42.086 62.1526 41.9898 62.0719 41.8688 62.0719H40.8623C40.8322 62.0719 40.8024 62.078 40.7747 62.0898C40.7469 62.1016 40.7218 62.1189 40.7008 62.1407C40.6798 62.1625 40.6633 62.1883 40.6523 62.2166C40.6413 62.2449 40.636 62.2751 40.6368 62.3056C40.6368 63.6183 41.3463 65.1897 44.7315 65.1897C47.2148 65.1897 48.62 64.2163 48.62 62.5086C48.62 60.8176 47.4925 60.367 45.111 60.0416C42.702 59.7162 42.4627 59.5521 42.4627 58.982C42.4627 58.5092 42.6607 57.8889 44.4427 57.8889C46.0322 57.8889 46.6262 58.2422 46.8682 59.3241C46.8957 59.4353 46.97 59.4993 47.0772 59.4993H48.081C48.147 59.4993 48.2047 59.4715 48.2432 59.4325C48.2845 59.3797 48.3092 59.3268 48.2982 59.2601C48.1387 57.3911 46.9177 56.5206 44.44 56.5206Z" fill="black"/>
</svg>
