<svg width="100" height="100" viewBox="0 0 100 100" fill="none" xmlns="http://www.w3.org/2000/svg">
<path d="M81.25 12.5H18.75C17.0924 12.5 15.5027 13.1585 14.3306 14.3306C13.1585 15.5027 12.5 17.0924 12.5 18.75V81.25C12.5 82.9076 13.1585 84.4973 14.3306 85.6694C15.5027 86.8415 17.0924 87.5 18.75 87.5H81.25C82.9076 87.5 84.4973 86.8415 85.6694 85.6694C86.8415 84.4973 87.5 82.9076 87.5 81.25V18.75C87.5 17.0924 86.8415 15.5027 85.6694 14.3306C84.4973 13.1585 82.9076 12.5 81.25 12.5ZM52.6797 18.3047C52.9699 18.0141 53.3146 17.7836 53.6939 17.6264C54.0733 17.4691 54.48 17.3882 54.8906 17.3882C55.3013 17.3882 55.7079 17.4691 56.0873 17.6264C56.4667 17.7836 56.8113 18.0141 57.1016 18.3047L74.7773 35.9844C75.3387 36.5752 75.647 37.3619 75.6365 38.1768C75.6261 38.9917 75.2978 39.7702 74.7215 40.3465C74.1452 40.9227 73.3667 41.2511 72.5518 41.2615C71.7369 41.272 70.9502 40.9637 70.3594 40.4023L52.6797 22.7266C52.3891 22.4363 52.1586 22.0917 52.0014 21.7123C51.8441 21.3329 51.7632 20.9263 51.7632 20.5156C51.7632 20.105 51.8441 19.6983 52.0014 19.3189C52.1586 18.9396 52.3891 18.5949 52.6797 18.3047ZM39.1328 38.582C39.45 37.8165 40.0581 37.2083 40.8236 36.8911C41.5891 36.574 42.4492 36.5738 43.2148 36.8906L66.3125 46.457C66.9826 46.7323 67.5363 47.2318 67.8788 47.8702C68.2213 48.5086 68.3314 49.2461 68.1902 49.9567C68.049 50.6673 67.6653 51.3067 67.1048 51.7656C66.5442 52.2246 65.8416 52.4745 65.1172 52.4727C64.7066 52.4724 64.3002 52.39 63.9219 52.2305L40.8242 42.6641C40.0587 42.3469 39.4505 41.7387 39.1333 40.9733C38.8161 40.2078 38.816 39.3477 39.1328 38.582ZM37.5 59.375H62.5C63.3288 59.375 64.1237 59.7042 64.7097 60.2903C65.2958 60.8763 65.625 61.6712 65.625 62.5C65.625 63.3288 65.2958 64.1237 64.7097 64.7097C64.1237 65.2958 63.3288 65.625 62.5 65.625H37.5C36.6712 65.625 35.8763 65.2958 35.2903 64.7097C34.7042 64.1237 34.375 63.3288 34.375 62.5C34.375 61.6712 34.7042 60.8763 35.2903 60.2903C35.8763 59.7042 36.6712 59.375 37.5 59.375ZM78.125 75C78.125 75.8288 77.7958 76.6237 77.2097 77.2097C76.6237 77.7958 75.8288 78.125 75 78.125H25C24.1712 78.125 23.3763 77.7958 22.7903 77.2097C22.2042 76.6237 21.875 75.8288 21.875 75V56.25C21.875 55.4212 22.2042 54.6263 22.7903 54.0403C23.3763 53.4542 24.1712 53.125 25 53.125C25.8288 53.125 26.6237 53.4542 27.2097 54.0403C27.7958 54.6263 28.125 55.4212 28.125 56.25V71.875H71.875V56.25C71.875 55.4212 72.2042 54.6263 72.7903 54.0403C73.3763 53.4542 74.1712 53.125 75 53.125C75.8288 53.125 76.6237 53.4542 77.2097 54.0403C77.7958 54.6263 78.125 55.4212 78.125 56.25V75Z" fill="#A062EB" fill-opacity="0.4"/>
</svg>
