<svg width="88" height="88" viewBox="0 0 88 88" fill="none" xmlns="http://www.w3.org/2000/svg">
<path d="M0 44V88H88V0H0V44ZM70.9115 40.491C73.0211 40.9877 74.9384 42.0931 76.4253 43.67C77.2283 44.528 78.43 46.1038 78.5317 46.4915C78.5592 46.607 74.7368 49.17 72.4158 50.6027C72.3305 50.6605 71.9868 50.303 71.6128 49.742C70.4825 48.0947 69.2917 47.3797 67.474 47.2505C64.8092 47.0772 63.0905 48.4688 63.1043 50.8035C63.0903 51.3748 63.2178 51.9407 63.4755 52.4507C64.064 53.669 65.1668 54.3978 68.574 55.8745C74.877 58.5805 77.5692 60.3708 79.244 62.9062C81.1195 65.7415 81.5347 70.268 80.2752 73.6478C78.8727 77.2998 75.405 79.7913 70.5348 80.608C69.0305 80.8803 65.45 80.8362 63.8303 80.5365C60.2938 79.9067 56.9415 78.1577 54.879 75.867C54.0622 74.9787 52.4865 72.644 52.5882 72.4872C52.6322 72.4295 52.9898 72.2012 53.3913 71.9702L56.6583 70.0782L59.1937 68.6043L59.7245 69.3907C60.4698 70.521 62.0867 72.0692 63.063 72.5835C65.8707 74.074 69.7235 73.8595 71.6293 72.1545C72.402 71.511 72.8338 70.521 72.776 69.52C72.776 68.5025 72.6468 68.046 72.116 67.2842C71.4285 66.3107 70.0397 65.4803 66.0715 63.7615C61.5312 61.798 59.5678 60.5963 57.794 58.663C56.6774 57.3905 55.8516 55.8899 55.374 54.2657C55.044 53.02 54.9588 49.896 55.2173 48.6502C56.1495 44.253 59.4715 41.2032 64.24 40.3012C65.7883 40.0015 69.3963 40.1142 70.9143 40.4882L70.9115 40.491ZM50.259 44.1732L50.2865 47.7675H38.8273V80.3247H30.7202V47.7675H19.2775V44.2448C19.2775 42.2813 19.3215 40.6505 19.3765 40.6065C19.4205 40.5487 26.3808 40.5212 34.8315 40.535L50.215 40.579L50.259 44.1732Z" fill="#282828"/>
</svg>
