<svg width="88" height="89" viewBox="0 0 88 89" fill="none" xmlns="http://www.w3.org/2000/svg">
<path d="M9.53334 39.2712L30.7267 17.8L36.9233 24.1041C36.0433 27.2562 37.4733 30.705 40.3333 32.3737V52.9179C38.1333 54.1787 36.6667 56.5891 36.6667 59.3333C36.6667 61.3003 37.4393 63.1868 38.8146 64.5777C40.1898 65.9686 42.0551 66.75 44 66.75C45.9449 66.75 47.8102 65.9686 49.1855 64.5777C50.5607 63.1868 51.3333 61.3003 51.3333 59.3333C51.3333 56.5891 49.8667 54.1787 47.6667 52.9179V34.8954L55.2567 42.6458C55 43.2021 55 43.8325 55 44.5C55 46.467 55.7726 48.3535 57.1479 49.7444C58.5232 51.1353 60.3884 51.9166 62.3333 51.9166C64.2783 51.9166 66.1435 51.1353 67.5188 49.7444C68.8941 48.3535 69.6667 46.467 69.6667 44.5C69.6667 42.533 68.8941 40.6465 67.5188 39.2556C66.1435 37.8647 64.2783 37.0833 62.3333 37.0833C61.6733 37.0833 61.05 37.0833 60.5 37.3429L51.0767 27.8125C51.5319 26.0949 51.3554 24.2686 50.5799 22.6727C49.8044 21.0768 48.4827 19.8197 46.86 19.135C45.2833 18.5416 43.6333 18.3933 42.1667 18.8012L35.9333 12.5341L38.83 9.64165C41.69 6.71206 46.31 6.71206 49.17 9.64165L78.4667 39.2712C81.3633 42.1637 81.3633 46.8362 78.4667 49.7287L49.17 79.3583C46.31 82.2879 41.69 82.2879 38.83 79.3583L9.53334 49.7287C6.63667 46.8362 6.63667 42.1637 9.53334 39.2712Z" fill="#282828"/>
</svg>
