<svg width="87" height="89" viewBox="0 0 87 89" fill="none" xmlns="http://www.w3.org/2000/svg">
<path d="M32.625 70.4583C17.0375 75.65 17.0375 61.1875 10.875 59.3333M54.375 77.875V64.8958C54.375 61.1875 54.7375 59.7042 52.5625 57.4792C62.7125 56.3667 72.5 52.2875 72.5 35.2292C72.4956 30.7976 70.8055 26.5417 67.7875 23.3625C69.2029 19.5131 69.0726 15.2473 67.425 11.4958C67.425 11.4958 63.4375 10.3833 54.7375 16.3167C47.3687 14.3534 39.6313 14.3534 32.2625 16.3167C23.5625 10.3833 19.575 11.4958 19.575 11.4958C17.9274 15.2473 17.7971 19.5131 19.2125 23.3625C16.1945 26.5417 14.5044 30.7976 14.5 35.2292C14.5 52.2875 24.2875 56.3667 34.4375 57.4792C32.2625 59.7042 32.2625 61.9292 32.625 64.8958V77.875" stroke="#282828" stroke-width="2" stroke-linecap="round" stroke-linejoin="round"/>
</svg>
