<svg width="88" height="88" viewBox="0 0 88 88" fill="none" xmlns="http://www.w3.org/2000/svg">
<path d="M69.3073 9.16669H18.6927C18.1823 9.16675 17.6775 9.27336 17.2107 9.4797C16.7439 9.68604 16.3253 9.98756 15.9817 10.365C15.6381 10.7424 15.3771 11.1874 15.2154 11.6714C15.0537 12.1555 14.9948 12.668 15.0425 13.1762L19.9705 65.7305C20.0302 66.3701 20.2569 66.9829 20.6278 67.5073C20.9988 68.0318 21.5011 68.4496 22.0843 68.7189L42.4637 78.1238C42.9453 78.3461 43.4695 78.4612 44 78.4612C44.5305 78.4612 45.0547 78.3461 45.5363 78.1238L65.9157 68.7189C66.4992 68.4498 67.0019 68.0321 67.3732 67.5077C67.7445 66.9832 67.9715 66.3703 68.0313 65.7305L72.9575 13.1762C73.0052 12.668 72.9463 12.1555 72.7846 11.6714C72.6229 11.1874 72.3618 10.7424 72.0183 10.365C71.6747 9.98756 71.2561 9.68604 70.7893 9.4797C70.3225 9.27336 69.8177 9.16675 69.3073 9.16669Z" stroke="#282828" stroke-width="4"/>
<path d="M58.6666 22H29.3333L31.1666 38.5H56.8333L55 58.6667L44 64.1667L33 58.6667L32.0833 49.5" stroke="#282828" stroke-width="4" stroke-linecap="round" stroke-linejoin="round"/>
</svg>
