<svg width="88" height="90" viewBox="0 0 88 90" fill="none" xmlns="http://www.w3.org/2000/svg">
<path fill-rule="evenodd" clip-rule="evenodd" d="M46.1648 1.96097C45.89 1.65698 45.5555 1.4142 45.1828 1.2481C44.8101 1.082 44.4073 0.996216 44 0.996216C43.5927 0.996216 43.1899 1.082 42.8172 1.2481C42.4445 1.4142 42.11 1.65698 41.8352 1.96097L26.4059 18.9896C21.2349 24.6932 18.2362 32.0695 17.945 39.8022C17.6538 47.5348 20.089 55.1205 24.816 61.2053L41.0667 82.1262V89.9998H46.9333V82.1262L63.184 61.2053C67.9102 55.1216 70.3456 47.5376 70.0554 39.8063C69.7653 32.075 66.7686 24.6994 61.6 18.9956L46.1648 1.96691V1.96097ZM46.9333 18.7998C46.9333 18.013 46.6243 17.2584 46.0742 16.702C45.5241 16.1457 44.778 15.8331 44 15.8331C43.222 15.8331 42.4759 16.1457 41.9258 16.702C41.3757 17.2584 41.0667 18.013 41.0667 18.7998V63.2998C41.0667 64.0866 41.3757 64.8412 41.9258 65.3975C42.4759 65.9539 43.222 66.2664 44 66.2664C44.778 66.2664 45.5241 65.9539 46.0742 65.3975C46.6243 64.8412 46.9333 64.0866 46.9333 63.2998V18.7998Z" fill="#282828"/>
</svg>
