<svg width="88" height="89" viewBox="0 0 88 89" fill="none" xmlns="http://www.w3.org/2000/svg">
<path d="M81.3963 68.5967L45.573 89V73.1098L67.892 60.7462L81.3963 68.5967ZM83.8457 66.3606V23.6888L70.7373 31.3095V58.7363L83.8457 66.3606ZM6.60367 68.5967L42.427 89V73.1098L20.108 60.7425L6.60367 68.5967ZM4.15434 66.3606V23.6888L17.2627 31.3095V58.7363L4.15434 66.3606ZM5.687 20.9298L42.427 0V15.3636L18.8907 28.4058L18.711 28.5097L5.687 20.9298ZM82.313 20.9298L45.573 0V15.3636L69.1093 28.4021L69.289 28.506L82.313 20.9298ZM42.4233 69.4942L20.405 57.3049V33.1451L42.4233 45.95V69.4942ZM45.5693 69.4942L67.5877 57.3049V33.1451L45.5693 45.95V69.4942ZM21.8973 30.3527L44.0073 18.1078L66.11 30.349L44.0037 43.2058L21.8973 30.3527Z" fill="#282828"/>
</svg>
